<svg width="48" height="44" viewBox="0 0 48 44" fill="none" xmlns="http://www.w3.org/2000/svg">
<rect width="47.08" height="44" rx="8" fill="#6DB9D0"/>
<path d="M31.615 19.0297H24.509V21.6287C24.509 23.4712 22.999 24.9702 21.143 24.9702C19.2871 24.9702 17.777 23.4712 17.777 21.6287V15.9852L14.743 17.7952C13.8407 18.3289 13.289 19.2989 13.289 20.3385V22.5337L9.54905 24.6779C8.83378 25.0863 8.586 25.9959 9.00208 26.706L12.7421 33.1384C13.1535 33.8485 14.0698 34.0898 14.785 33.6814L19.619 30.9107H26.005C27.6553 30.9107 28.997 29.5788 28.997 27.9405H29.745C30.5725 27.9405 31.241 27.2768 31.241 26.4554V23.4851H31.615C32.2368 23.4851 32.737 22.9885 32.737 22.3713V20.1436C32.737 19.5263 32.2368 19.0297 31.615 19.0297ZM38.52 17.294L34.78 10.8616C34.3686 10.1515 33.4523 9.91015 32.737 10.3186L27.9031 13.0892H23.1252C22.5642 13.0892 22.0173 13.247 21.5404 13.5394L19.9743 14.5094C19.5348 14.7786 19.273 15.2566 19.273 15.7671V21.6287C19.273 22.6544 20.1099 23.4851 21.143 23.4851C22.1762 23.4851 23.013 22.6544 23.013 21.6287V17.5446H31.615C33.0596 17.5446 34.233 18.7095 34.233 20.1436V21.4663L37.973 19.3221C38.6883 18.9091 38.9314 18.0041 38.52 17.294Z" fill="white"/>
</svg>
