<svg width="48" height="44" viewBox="0 0 48 44" fill="none" xmlns="http://www.w3.org/2000/svg">
<rect width="47.08" height="44" rx="8" fill="#6DB9D0"/>
<path d="M17.0592 18.9143C16.4868 18.1589 15.4014 18.0036 14.64 18.5714C13.8786 19.1393 13.722 20.2161 14.2944 20.9714L16.3518 23.6929C16.611 24.0357 16.5732 24.5125 16.2708 24.8125L15.5796 25.4982C15.2178 25.8571 14.6292 25.8304 14.3052 25.4393L9.456 19.6643V11.7143C9.456 10.7661 8.6838 10 7.728 10C6.7722 10 6 10.7661 6 11.7143V23.4143C6 23.9982 6.1998 24.5661 6.567 25.0214L12.1884 32.2161C12.4584 32.5643 12.642 32.9607 12.75 33.3786C12.8472 33.7482 13.1874 34 13.5762 34H20.688C21.1632 34 21.552 33.6143 21.552 33.1429V27.1429C21.552 25.6589 21.066 24.2179 20.1696 23.0286L17.0592 18.9143ZM38.832 10C37.8762 10 37.104 10.7661 37.104 11.7143V19.6643L32.2548 25.4393C31.9308 25.825 31.3368 25.8518 30.9804 25.4982L30.2892 24.8125C29.9868 24.5125 29.949 24.0357 30.2082 23.6929L32.2656 20.9714C32.838 20.2161 32.6814 19.1393 31.92 18.5714C31.1586 18.0036 30.0732 18.1589 29.5008 18.9143L26.3904 23.0286C25.494 24.2179 25.008 25.6589 25.008 27.1429V33.1429C25.008 33.6143 25.3968 34 25.872 34H32.9838C33.3672 34 33.7128 33.7482 33.81 33.3786C33.918 32.9607 34.1016 32.5643 34.3716 32.2161L39.993 25.0214C40.3602 24.5661 40.56 23.9982 40.56 23.4143V11.7143C40.56 10.7661 39.7878 10 38.832 10Z" fill="white"/>
</svg>
